HIERARCHY
ROOT Hips
{
    OFFSET 0.000000 0.000000 0.000000
    CHANNELS 6 Xposition Yposition Zposition Zrotation Xrotation Yrotation
    JOINT Spine
    {
        OFFSET -0.000000 8.185774 0.000000
        CHANNELS 3 Zrotation Xrotation Yrotation
        JOINT Spine1
        {
            OFFSET -0.000000 23.949169 0.000000
            CHANNELS 3 Zrotation Xrotation Yrotation
            JOINT Neck
            {
                OFFSET -0.000000 23.850817 2.168256
                CHANNELS 3 Zrotation Xrotation Yrotation
                JOINT Head
                {
                    OFFSET -0.000000 13.975711 -1.996530
                    CHANNELS 3 Zrotation Xrotation Yrotation
                    End Site
                    {
                        OFFSET -0.000000 24.956627 0.000000
                    }
                }
            }
            JOINT LeftShoulder
            {
                OFFSET 3.979389 22.161966 -0.249083
                CHANNELS 3 Zrotation Xrotation Yrotation
                JOINT LeftArm
                {
                    OFFSET 10.812937 0.000000 0.000000
                    CHANNELS 3 Zrotation Xrotation Yrotation
                    JOINT LeftForeArm
                    {
                        OFFSET 31.697208 0.000000 0.000000
                        CHANNELS 3 Zrotation Xrotation Yrotation
                        JOINT LeftHand
                        {
                            OFFSET 27.047384 0.000000 0.000000
                            CHANNELS 3 Zrotation Xrotation Yrotation
                            End Site
                            {
                                OFFSET 14.973977 0.000000 0.000000
                            }
                        }
                    }
                }
            }
            JOINT RightShoulder
            {
                OFFSET -4.006446 22.161966 -0.249083
                CHANNELS 3 Zrotation Xrotation Yrotation
                JOINT RightArm
                {
                    OFFSET -10.812937 0.000000 0.000000
                    CHANNELS 3 Zrotation Xrotation Yrotation
                    JOINT RightForeArm
                    {
                        OFFSET -31.697208 0.000000 0.000000
                        CHANNELS 3 Zrotation Xrotation Yrotation
                        JOINT RightHand
                        {
                            OFFSET -27.047384 0.000000 0.000000
                            CHANNELS 3 Zrotation Xrotation Yrotation
                            End Site
                            {
                                OFFSET -14.973977 0.000000 0.000000
                            }
                        }
                    }
                }
            }
        }
    }
    JOINT LeftUpLeg
    {
        OFFSET 9.982651 0.000000 0.000000
        CHANNELS 3 Zrotation Xrotation Yrotation
        JOINT LeftLeg
        {
            OFFSET -0.000000 -38.511635 0.000000
            CHANNELS 3 Zrotation Xrotation Yrotation
            JOINT LeftFoot
            {
                OFFSET -0.000000 -44.789326 0.000000
                CHANNELS 3 Zrotation Xrotation Yrotation
                JOINT LeftToeBase
                {
                    OFFSET -0.000000 -6.488723 14.973977
                    CHANNELS 3 Zrotation Xrotation Yrotation
                    End Site
                    {
                        OFFSET -0.000000 0.000000 3.993060
                    }
                }
            }
        }
    }
    JOINT RightUpLeg
    {
        OFFSET -9.982651 0.000000 0.000000
        CHANNELS 3 Zrotation Xrotation Yrotation
        JOINT RightLeg
        {
            OFFSET -0.000000 -38.511635 0.000000
            CHANNELS 3 Zrotation Xrotation Yrotation
            JOINT RightFoot
            {
                OFFSET -0.000000 -44.789326 0.000000
                CHANNELS 3 Zrotation Xrotation Yrotation
                JOINT RightToeBase
                {
                    OFFSET -0.000000 -6.488723 14.973977
                    CHANNELS 3 Zrotation Xrotation Yrotation
                    End Site
                    {
                        OFFSET -0.000000 0.000000 3.993060
                    }
                }
            }
        }
    }
}
MOTION
Frames:    13
Frame Time:    0.008333
-18.850481    96.408066    200.231430    1.260490    -1.235906    176.961807    2.154544    -9.070080    -0.197727    1.500351    1.305944    -0.385805    -7.705328    12.440798    -11.199172    14.656218    1.284501    -9.474727    16.204033    -2.216862    3.361794    -16.448597    1.321681    -2.457008    -0.565832    4.610127    9.014027    -7.474107    4.520680    2.056586    -23.190723    -5.645937    -4.645209    24.816374    -13.193471    6.240937    1.194659    14.643620    3.763368    -16.726393    16.492298    -13.260888    8.251248    7.675733    3.683946    -0.841089    2.645166    9.784631    -9.894258    0.475731    12.807765    0.000000    0.000000    0.000000    3.717248    -6.472454    1.144612    -16.444622    20.139706    -56.309845    0.430300    21.265276    37.530964    0.000000    0.000000    0.000000    
-18.845924    96.403740    200.245377    1.258621    -1.233703    176.958054    2.137899    -9.071223    -0.203644    1.530984    1.261902    -0.390161    -7.709405    12.539351    -11.297567    14.653394    1.083917    -9.559680    16.146973    -2.193504    3.357254    -16.388382    1.271293    -2.455694    -0.545637    4.638970    9.017263    -7.516366    4.545506    2.082134    -23.334566    -5.767361    -4.647080    24.902096    -13.137987    6.168203    1.144139    14.687612    3.752731    -16.734877    16.540958    -13.277747    8.246420    7.704537    3.594871    -0.836865    2.578933    9.914412    -9.872181    0.515409    12.754500    0.000000    0.000000    0.000000    -2.447429    3.956678    -5.037328    -2.971972    5.324684    -0.568048    8.141294    2.530574    -16.828491    0.000000    0.000000    0.000000    
-18.837158    96.393799    200.250198    1.264088    -1.183991    176.976532    2.121754    -9.106666    -0.219797    1.579571    1.406375    -0.408369    -7.735725    12.469622    -11.403218    14.642282    0.933474    -9.646761    16.162828    -2.231365    3.373525    -16.398157    1.241640    -2.418884    -0.545058    4.667223    8.979782    -7.502688    4.572439    2.102860    -23.533026    -5.839246    -4.697542    24.984093    -13.100468    6.114565    1.093662    14.653628    3.802379    -16.499365    16.475910    -13.237659    8.253538    7.778450    3.498575    -0.830364    2.526633    9.989594    -9.876497    0.502238    12.746686    0.000000    0.000000    0.000000    -2.505750    4.154289    -5.120699    -2.830613    5.113383    -0.034395    8.091628    2.414494    -17.256718    0.000000    0.000000    0.000000    
-18.832281    96.392456    200.267715    1.260962    -1.185334    176.975906    2.109630    -9.121527    -0.217708    1.590800    1.395675    -0.405371    -7.788270    12.524752    -11.523459    14.763370    0.790725    -9.740375    16.167404    -2.238881    3.357219    -16.376877    1.227212    -2.406446    -0.539627    4.705620    8.980775    -7.489871    4.608809    2.131155    -23.408077    -5.715867    -4.692790    24.754150    -13.145049    6.113415    1.116882    14.556135    3.863306    -16.553360    16.395735    -13.319873    8.246901    7.791639    3.442187    -0.822997    2.483281    10.053374    -9.888041    0.516927    12.744399    0.000000    0.000000    0.000000    -2.339685    4.946744    -0.064330    -3.887180    4.324045    -0.581762    8.228653    1.520466    -20.744751    0.000000    0.000000    0.000000    
-18.825567    96.390579    200.282242    1.271580    -1.176066    176.972519    2.143827    -9.131960    -0.223061    1.553892    1.404068    -0.413317    -7.868377    12.509901    -11.635656    14.915620    0.760238    -9.829434    16.187859    -2.240619    3.370333    -16.453360    1.540746    -2.421730    -0.329689    4.617821    9.041718    -7.537390    4.505264    2.109828    -23.432814    -5.725482    -4.697569    24.733137    -13.263026    6.086357    1.127912    14.594260    3.873389    -16.632309    16.444059    -13.333645    8.258612    7.827114    3.368783    -0.819850    2.428387    10.118924    -9.893718    0.528613    12.746563    0.000000    0.000000    0.000000    -2.325005    4.957725    -0.094986    -2.655843    3.947803    -4.405482    8.177402    2.661994    -17.913906    0.000000    0.000000    0.000000    
-18.822456    96.385948    200.298309    1.263902    -1.181531    176.976715    2.140887    -9.190685    -0.232118    1.554525    1.475510    -0.424342    -7.927712    12.473951    -11.747013    15.011149    0.658674    -9.915154    16.209549    -2.258797    3.383342    -16.456902    1.602666    -2.386527    -0.302083    4.602174    9.000560    -7.518140    4.486516    2.127378    -23.497135    -5.730798    -4.726797    24.731104    -13.547741    6.088858    1.189775    14.686312    3.841224    -16.688789    16.530331    -13.265324    8.249441    7.834763    3.325782    -0.815438    2.387830    10.136379    -9.888249    0.535706    12.766008    0.000000    0.000000    0.000000    -2.510036    4.116238    -5.491473    -2.848451    5.124382    0.268317    8.071274    2.401633    -17.153578    0.000000    0.000000    0.000000    
-18.815346    96.382774    200.311203    1.268149    -1.173796    176.978317    2.164832    -9.227785    -0.236094    1.519346    1.522307    -0.431059    -7.964874    12.458563    -11.830528    15.085649    0.599347    -9.982286    16.231756    -2.260889    3.397015    -16.441492    1.624867    -2.378519    -0.254963    4.747972    9.019898    -7.616005    4.627340    2.120397    -23.516491    -5.750263    -4.739213    24.701464    -13.577427    6.053358    1.158392    14.632801    3.855749    -16.606298    16.460480    -13.206848    8.258617    7.867137    3.289723    -0.817731    2.334605    10.170418    -9.902044    0.540641    12.758283    0.000000    0.000000    0.000000    -2.499360    4.147912    -5.479631    -2.848781    5.068806    0.238955    8.060851    2.416265    -17.141975    0.000000    0.000000    0.000000    
-18.809708    96.382004    200.327728    1.265583    -1.165913    176.983246    2.189881    -9.241281    -0.245438    1.472709    1.531927    -0.442163    -7.979354    12.470322    -11.913207    15.126087    0.491346    -10.049603    16.258892    -2.275759    3.411303    -16.323185    1.336979    -2.319342    -0.475920    4.676256    8.875774    -7.276940    4.573717    2.198313    -23.527500    -5.735921    -4.756222    24.677387    -13.532974    6.036775    1.112504    14.553540    3.901903    -16.514093    16.379597    -13.257111    8.254360    7.888261    3.274957    -0.806367    2.297142    10.155948    -9.917388    0.546904    12.785260    0.000000    0.000000    0.000000    -2.499318    4.178357    -5.466231    -2.843519    5.020604    0.235424    8.066379    2.413494    -17.142744    0.000000    0.000000    0.000000    
-18.800215    96.375633    200.344269    1.277669    -1.170582    176.984665    2.205578    -9.244811    -0.247447    1.473802    1.495553    -0.445198    -8.075252    12.366539    -11.996391    15.248585    0.632345    -10.127203    16.243605    -2.257386    3.427201    -16.287704    1.314489    -2.336871    -0.415460    4.853998    8.932142    -7.474967    4.746694    2.144834    -23.554199    -5.712409    -4.799228    24.654570    -13.575484    6.061910    1.109464    14.532518    3.880601    -16.605675    16.378290    -13.319176    8.271562    7.894435    3.291215    -0.799648    2.264059    10.150311    -9.913504    0.537246    12.762448    0.000000    0.000000    0.000000    -2.481797    4.193923    -5.442093    -2.836470    4.972279    0.245067    8.050185    2.416553    -17.173994    0.000000    0.000000    0.000000    
-18.789404    96.370285    200.358078    1.293699    -1.164353    176.996002    2.210059    -9.238390    -0.256530    1.477570    1.467335    -0.454018    -8.068787    12.449978    -12.111561    15.228869    0.429480    -10.230382    16.222507    -2.249307    3.474980    -16.231005    1.262455    -2.393093    -0.396160    4.835297    8.957044    -7.476860    4.728166    2.120068    -23.525446    -5.726868    -4.829590    24.585403    -13.545047    6.057297    1.074772    14.549034    3.847844    -16.471981    16.365623    -13.211496    8.299201    7.914840    3.302617    -0.804673    2.225810    10.140915    -9.891955    0.536206    12.736796    0.000000    0.000000    0.000000    -2.458900    4.237587    -5.400342    -2.839167    4.883663    -0.319250    8.035773    2.529488    -16.665436    0.000000    0.000000    0.000000    
-18.780750    96.365143    200.375198    1.307082    -1.156161    177.017487    2.214247    -9.256517    -0.267376    1.484412    1.489772    -0.465940    -8.140804    12.430436    -12.227182    15.343467    0.414982    -10.329683    16.228666    -2.250741    3.504240    -16.209814    1.223120    -2.419287    -0.392345    4.643631    8.931322    -7.338592    4.541433    2.076481    -23.409760    -5.605014    -4.846593    24.374590    -13.659545    6.082417    1.156892    14.509183    3.850947    -16.480164    16.324680    -13.213706    8.322248    7.928991    3.316302    -0.800910    2.195009    10.103987    -9.900824    0.533247    12.717120    0.000000    0.000000    0.000000    -2.438008    4.276500    -5.413829    -2.839995    4.831573    -0.337521    8.039685    2.522508    -16.628794    0.000000    0.000000    0.000000    
-18.776636    96.359505    200.393921    1.300263    -1.156523    177.044937    2.216363    -9.218463    -0.278449    1.458669    1.376538    -0.474722    -8.175001    12.501434    -12.304667    15.417492    0.379276    -10.400067    16.227798    -2.240450    3.490488    -16.176323    1.245005    -2.409124    -0.342877    4.606793    8.922094    -7.428854    4.499790    2.065269    -23.522444    -5.733931    -4.864897    24.466480    -13.598179    6.000719    1.146423    14.610961    3.814882    -16.511349    16.435476    -13.253955    8.313411    7.930226    3.325795    -0.783987    2.161129    10.062080    -9.910069    0.529396    12.727991    0.000000    0.000000    0.000000    -2.452599    4.305387    -5.393659    -2.812873    4.744799    -0.385998    8.030280    2.583459    -16.661894    0.000000    0.000000    0.000000    
-18.771688    96.354935    200.410538    1.305116    -1.142307    177.077255    2.184070    -9.207292    -0.272190    1.499197    1.348709    -0.465820    -8.188980    12.507567    -12.393291    15.454853    0.362160    -10.485492    16.217735    -2.266305    3.450363    -16.149240    1.239821    -2.408496    -0.307412    4.584524    8.909682    -7.537055    4.475255    2.027455    -23.528688    -5.725368    -4.918965    24.410982    -13.512683    5.951309    1.097445    14.563122    3.793943    -16.565643    16.389313    -13.206724    8.320472    7.947055    3.352389    -0.768829    2.131093    9.995799    -9.924604    0.529256    12.718494    0.000000    0.000000    0.000000    -2.447914    4.362229    -5.357793    -2.786402    4.719270    0.085263    8.055060    2.395792    -17.148291    0.000000    0.000000    0.000000    
